<svg width="24" height="24" viewBox="0 0 24 24" fill="none" xmlns="http://www.w3.org/2000/svg">
<g clip-path="url(#clip0_23_278)">
<path d="M11.9999 2.16211C15.2042 2.16211 15.5834 2.1745 16.849 2.23214C18.0189 2.28549 18.6544 2.48079 19.0774 2.64513C19.6375 2.86281 20.0372 3.1229 20.4573 3.54255C20.8774 3.96269 21.1375 4.36234 21.3547 4.92251C21.5191 5.34551 21.7144 5.98095 21.7677 7.15084C21.8254 8.41601 21.8378 8.79565 21.8378 12C21.8378 15.2044 21.8254 15.5835 21.7677 16.8492C21.7144 18.0191 21.5191 18.6545 21.3547 19.0775C21.1371 19.6377 20.877 20.0373 20.4573 20.4574C20.0372 20.8776 19.6375 21.1377 19.0774 21.3549C18.6544 21.5192 18.0189 21.7145 16.849 21.7679C15.5839 21.8255 15.2042 21.8379 11.9999 21.8379C8.79552 21.8379 8.41587 21.8255 7.15071 21.7679C5.98081 21.7145 5.34537 21.5192 4.92238 21.3549C4.3622 21.1372 3.96255 20.8771 3.54242 20.4574C3.12229 20.0373 2.8622 19.6377 2.64499 19.0775C2.48065 18.6545 2.28535 18.0191 2.232 16.8492C2.17437 15.584 2.16198 15.2044 2.16198 12C2.16198 8.79565 2.17437 8.41648 2.232 7.15084C2.28535 5.98095 2.48065 5.34551 2.64499 4.92251C2.86268 4.36234 3.12276 3.96269 3.54242 3.54255C3.96208 3.12242 4.3622 2.86234 4.92238 2.64513C5.34537 2.48079 5.98081 2.28549 7.15071 2.23214C8.41587 2.1745 8.79552 2.16211 11.9999 2.16211ZM11.9999 0C8.74074 0 8.33204 0.0138139 7.0521 0.0724039C5.77503 0.130518 4.90237 0.333439 4.13928 0.6302C3.34998 0.936964 2.68072 1.34709 2.01384 2.01445C1.34648 2.6818 0.936354 3.35059 0.62959 4.13989C0.332829 4.90299 0.129907 5.77564 0.0717936 7.05271C0.0132036 8.33265 -0.000610352 8.74135 -0.000610352 12.0005C-0.000610352 15.2596 0.0132036 15.6683 0.0717936 16.9482C0.129907 18.2253 0.332829 19.098 0.62959 19.8611C0.936354 20.6504 1.34648 21.3196 2.01384 21.9865C2.68119 22.6539 3.34998 23.064 4.13928 23.3708C4.90237 23.6675 5.77503 23.8704 7.0521 23.9285C8.33204 23.9871 8.74074 24.001 11.9999 24.001C15.259 24.001 15.6677 23.9871 16.9476 23.9285C18.2247 23.8704 19.0974 23.6675 19.8605 23.3708C20.6498 23.064 21.319 22.6539 21.9859 21.9865C22.6532 21.3191 23.0634 20.6504 23.3701 19.8611C23.6669 19.098 23.8698 18.2253 23.9279 16.9482C23.9865 15.6683 24.0003 15.2596 24.0003 12.0005C24.0003 8.74135 23.9865 8.33265 23.9279 7.05271C23.8698 5.77564 23.6669 4.90299 23.3701 4.13989C23.0634 3.35059 22.6532 2.68133 21.9859 2.01445C21.3185 1.34709 20.6498 0.936964 19.8605 0.6302C19.0974 0.333439 18.2247 0.130518 16.9476 0.0724039C15.6677 0.0138139 15.259 0 11.9999 0Z" fill="white"/>
<path d="M12 5.83789C8.59651 5.83789 5.83801 8.59686 5.83801 11.9998C5.83801 15.4028 8.59698 18.1618 12 18.1618C15.403 18.1618 18.1619 15.4028 18.1619 11.9998C18.1619 8.59686 15.403 5.83789 12 5.83789ZM12 16.0002C9.7907 16.0002 8.00013 14.2091 8.00013 12.0003C8.00013 9.79153 9.79117 8.00048 12 8.00048C14.2088 8.00048 15.9998 9.79153 15.9998 12.0003C15.9998 14.2091 14.2088 16.0002 12 16.0002Z" fill="white"/>
<path d="M18.4058 7.03426C19.2011 7.03426 19.8458 6.38956 19.8458 5.59428C19.8458 4.799 19.2011 4.1543 18.4058 4.1543C17.6105 4.1543 16.9658 4.799 16.9658 5.59428C16.9658 6.38956 17.6105 7.03426 18.4058 7.03426Z" fill="white"/>
</g>
<defs>
<clipPath id="clip0_23_278">
<rect width="24" height="24" fill="white"/>
</clipPath>
</defs>
</svg>
