<svg width="17" height="22" viewBox="0 0 17 22" fill="none" xmlns="http://www.w3.org/2000/svg">
<g clip-path="url(#clip0_23_291)">
<path d="M8.49873 0C3.8046 0 0 3.84294 0 8.58436C0 12.4786 5.73105 19.3431 7.78203 21.6714C8.16579 22.1053 8.83675 22.1053 9.21797 21.6714C11.2689 19.3405 17 12.4761 17 8.58436C17 3.84294 13.1954 0 8.49873 0ZM8.49873 11.6572C6.55449 11.6572 4.97877 10.0656 4.97877 8.10175C4.97877 6.13792 6.55449 4.54632 8.49873 4.54632C10.443 4.54632 12.0187 6.13792 12.0187 8.10175C12.0187 10.0656 10.443 11.6572 8.49873 11.6572Z" fill="#3E3A39"/>
</g>
<defs>
<clipPath id="clip0_23_291">
<rect width="17" height="22" fill="white"/>
</clipPath>
</defs>
</svg>
