<svg width="76" height="76" viewBox="0 0 76 76" fill="none" xmlns="http://www.w3.org/2000/svg">
<circle cx="38" cy="38" r="37" fill="white" stroke="#3E3A39" stroke-width="2"/>
<g clip-path="url(#clip0_54_855)">
<path d="M30.1667 58C27.5544 58 25.4351 55.8948 25.4351 53.3157C25.4351 50.7365 27.5615 48.6244 30.1667 48.6244C32.7719 48.6244 34.9053 50.7295 34.9053 53.3157C34.9053 55.9018 32.7789 58 30.1667 58Z" fill="#3E3A39"/>
<path d="M51.4237 58C48.8115 58 46.6851 55.8948 46.6851 53.3157C46.6851 50.7365 48.8115 48.6244 51.4237 48.6244C54.0359 48.6244 56.1553 50.7295 56.1553 53.3157C56.1553 55.9018 54.0289 58 51.4237 58Z" fill="#3E3A39"/>
<path d="M51.4235 54.0337H31.2227C30.6594 54.0337 30.1173 53.7618 29.7863 53.3087C29.4484 52.8486 29.3568 52.2631 29.5258 51.7263L32.2366 45.1251C32.3915 44.7556 32.814 44.5744 33.1872 44.7277C33.5603 44.8811 33.7364 45.2993 33.5885 45.6688L30.8918 52.2143C30.8777 52.2561 30.8918 52.3677 30.9551 52.4513C31.0185 52.535 31.1101 52.5837 31.2157 52.5837H51.4165C51.8178 52.5837 52.1488 52.9044 52.1488 53.3087C52.1488 53.713 51.8249 54.0337 51.4165 54.0337H51.4235Z" fill="#3E3A39"/>
<path d="M57.6551 27.754C57.3171 27.3009 56.782 27.036 56.2187 27.036H25.7872L24.3579 23.8016C24.2382 23.5367 23.9777 23.3694 23.689 23.3694H16.9295C16.5282 23.3694 16.1973 23.6901 16.1973 24.0874C16.1973 24.4848 16.5212 24.8124 16.9295 24.8124H23.2102L32.1312 45.0554C32.4129 45.7036 33.0536 46.1219 33.7718 46.1219H51.2548C52.0363 46.1219 52.7193 45.627 52.9587 44.8881L57.9156 29.3294C58.0846 28.7927 57.986 28.2071 57.6551 27.754ZM49.7691 41.9395H34.842C34.4407 41.9395 34.1098 41.6188 34.1098 41.2145C34.1098 40.8102 34.4336 40.4895 34.842 40.4895H49.7691C50.1704 40.4895 50.5014 40.8102 50.5014 41.2145C50.5014 41.6188 50.1775 41.9395 49.7691 41.9395ZM51.0435 37.3736H33.5676C33.1663 37.3736 32.8353 37.053 32.8353 36.6487C32.8353 36.2444 33.1592 35.9237 33.5676 35.9237H51.0435C51.4449 35.9237 51.7758 36.2444 51.7758 36.6487C51.7758 37.053 51.4519 37.3736 51.0435 37.3736ZM52.0856 32.8078H32.5185C32.1171 32.8078 31.7862 32.4872 31.7862 32.0828C31.7862 31.6785 32.1101 31.3579 32.5185 31.3579H52.0856C52.487 31.3579 52.8179 31.6785 52.8179 32.0828C52.8179 32.4872 52.494 32.8078 52.0856 32.8078Z" fill="#3E3A39"/>
<path d="M18.3024 24.1432C18.3024 24.7706 17.7884 25.2794 17.1477 25.2794C16.507 25.2794 16 24.7706 16 24.1432C16 23.5158 16.514 23 17.1477 23C17.7814 23 18.3024 23.5089 18.3024 24.1432Z" fill="#3E3A39"/>
</g>
<defs>
<clipPath id="clip0_54_855">
<rect width="42" height="35" fill="white" transform="translate(16 23)"/>
</clipPath>
</defs>
</svg>
