<svg width="61" height="46" viewBox="0 0 61 46" fill="none" xmlns="http://www.w3.org/2000/svg">
<path d="M19.41 15.81C19.98 16.2 20.75 15.72 20.66 15.03C20 10.21 18.27 4.82 15.96 2.34C15.87 2.24 15.6 2.13 15.46 2.1C15.07 1.99 14.47 1.94 13.84 1.94C10.51 1.91 7.26 1.5 3.98 0.96C2.69 0.75 1.28 0.49 0 0C2.94 3.3 6.29 6.2 9.79 8.88C12.93 11.29 16.14 13.6 19.4 15.82L19.41 15.81Z" fill="#3A3084"/>
<path d="M27.06 24.78C27.99 24.7 28.9 24.53 29.82 24.36C30.17 24.3 30.26 23.84 29.95 23.65C27.07 21.89 24.22 20.07 21.39 18.2C21.28 18.18 21.16 18.1 21.07 17.99C20.51 17.62 19.96 17.25 19.4 16.88C13.95 13.22 8.41 9.43995 3.57 4.94995C5.49 7.62995 7.32 10.36 9.05 13.18C10.87 16.16 14.19 22.38 14.29 22.49C16.33 24.67 20.17 24.81 22.96 24.88C24.32 24.91 25.7 24.91 27.06 24.78Z" fill="#1597C6"/>
<path d="M36.99 38.83C38.85 38.06 39.65 37.68 41.45 36.8C42.72 36.18 43.9 35.53 45.35 34.77C46.37 34.24 46.33 33.3 45.28 32.7C39.58 29.47 35.11 26.74 33.24 25.64C32.72 25.33 32.11 25.22 31.51 25.32C30.22 25.54 27.87 25.91 26.46 25.98C25.05 26.05 23.64 26.06 22.23 26C19.87 25.89 17.15 25.96 14.75 24.78C15.82 26.27 16.52 27.71 17.28 29.44C18.51 32.23 19.58 35.23 21.13 37.86C21.87 39.12 22.62 40.23 24.25 40.99C27.18 42.36 32.99 40.48 36.99 38.83Z" fill="#4DB45B"/>
<path d="M42.72 37.4401C41.98 37.8401 41.21 38.2201 40.44 38.5701C35.89 40.6201 30.68 42.8001 25.45 42.2901C26.08 42.7001 26.74 43.0601 27.43 43.3701C32.1 45.4801 38.32 45.8501 43.1 43.8801C47.08 42.2401 49.23 39.5701 50.97 35.7901C50.34 35.5001 49.59 34.9601 48.96 34.6701C48.28 34.3501 47.54 34.6101 46.89 35.0001C44.99 36.1601 44.36 36.5701 42.73 37.4501L42.72 37.4401Z" fill="#E8DA23"/>
<path d="M28.91 1.41995C24.84 1.49995 20.07 1.83995 16.85 1.41995C19.4 5.75995 21.03 11.06 21.56 16.06C21.65 16.86 22.06 17.59 22.74 18.03C24.44 19.13 26.15 20.21 27.88 21.27C28.61 21.71 29.55 21.34 29.79 20.53C31.03 16.35 30.63 7.90995 30.13 2.52995C30.07 1.88995 29.54 1.40995 28.9 1.41995H28.91Z" fill="#9D1C4E"/>
<path d="M46.84 5.32005C46.84 4.60005 46.41 3.93005 45.74 3.68005C42.95 2.64005 39.97 2.03005 36.92 1.70005C36.49 1.65005 35.06 1.55005 34.63 1.51005C33.54 1.42005 33.31 1.42005 31.08 0.800049C31.53 5.25005 32.35 16.77 30.49 21.56C30.26 22.15 30.46 22.81 30.99 23.13C31.48 23.43 31.98 23.73 32.48 24.02C32.49 24.02 32.5 24.03 32.51 24.04C34.2 25.02 35.92 25.98 37.64 26.92C38.26 27.26 39.06 27.1401 39.52 26.6C45.96 19.1501 46.84 9.80005 46.85 5.32005H46.84Z" fill="#E2181D"/>
<path d="M54.13 8.94005C52.25 7.08005 50.15 6.16005 47.96 4.18005C48.04 8.44005 47.3 19.0601 40.36 27.1701C39.99 27.6101 40.1 28.2801 40.61 28.5401C43.7 30.1501 44.28 30.5401 47.49 32.0301C47.49 32.0301 51.03 33.4801 51.05 33.4801C53.3 32.9301 55.11 30.4901 56.57 28.8401C58.06 27.1501 60.02 25.0701 60.59 22.8301C61.88 17.7701 57.45 12.2201 54.13 8.94005Z" fill="#E88516"/>
</svg>
