<svg width="50" height="36" viewBox="0 0 50 36" fill="none" xmlns="http://www.w3.org/2000/svg">
<path d="M8.19311 9.9482C8.41333 10.1043 8.71083 9.91219 8.67606 9.63607C8.42106 7.70726 7.75265 5.55036 6.86016 4.55794C6.82539 4.51793 6.72107 4.47391 6.66698 4.4619C6.5163 4.41788 6.28448 4.39788 6.04108 4.39788C4.7545 4.38587 3.49883 4.2218 2.23156 4.00571C1.73316 3.92168 1.18839 3.81763 0.693848 3.62155C1.82975 4.9421 3.12406 6.10259 4.47632 7.17504C5.68949 8.13944 6.92971 9.06383 8.18924 9.9522L8.19311 9.9482Z" fill="#3A3084"/>
<path d="M11.1486 13.5377C11.5079 13.5057 11.8595 13.4376 12.215 13.3696C12.3502 13.3456 12.385 13.1615 12.2652 13.0855C11.1525 12.3812 10.0513 11.6529 8.95794 10.9046C8.91544 10.8966 8.86908 10.8646 8.83431 10.8205C8.61795 10.6725 8.40545 10.5244 8.18909 10.3764C6.08342 8.91174 3.94298 7.39911 2.073 5.60236C2.81481 6.6748 3.52185 7.76726 4.19025 8.89573C4.89343 10.0882 6.17615 12.5773 6.21478 12.6213C7.00296 13.4937 8.48658 13.5497 9.56453 13.5777C10.09 13.5897 10.6232 13.5897 11.1486 13.5377Z" fill="#1597C6"/>
<path d="M14.9889 19.16C15.7075 18.8519 16.0166 18.6998 16.7121 18.3477C17.2027 18.0996 17.6587 17.8395 18.2189 17.5354C18.613 17.3233 18.5975 16.9471 18.1918 16.707C15.9896 15.4145 14.2625 14.322 13.54 13.8818C13.3391 13.7578 13.1035 13.7138 12.8716 13.7538C12.3732 13.8418 11.4653 13.9899 10.9205 14.0179C10.3758 14.0459 9.83099 14.0499 9.28622 14.0259C8.37441 13.9819 7.32351 14.0099 6.39624 13.5377C6.80965 14.1339 7.0801 14.7102 7.37373 15.4025C7.84896 16.5189 8.26236 17.7194 8.86122 18.7719C9.14713 19.2761 9.4369 19.7203 10.0667 20.0244C11.1987 20.5726 13.4435 19.8203 14.9889 19.16Z" fill="#4DB45B"/>
<path d="M17.2027 18.6038C16.9168 18.7639 16.6193 18.9159 16.3218 19.056C14.5639 19.8763 12.5509 20.7487 10.5303 20.5446C10.7737 20.7087 11.0287 20.8527 11.2953 20.9768C13.0996 21.8211 15.5027 21.9692 17.3495 21.1809C18.8873 20.5246 19.7179 19.4561 20.3902 17.9435C20.1468 17.8275 19.857 17.6114 19.6136 17.4953C19.3509 17.3673 19.065 17.4713 18.8138 17.6274C18.0798 18.0916 17.8364 18.2556 17.2066 18.6078L17.2027 18.6038Z" fill="#E8DA23"/>
<path d="M11.8673 4.18976C10.2948 4.22177 8.45184 4.35783 7.20776 4.18976C8.19298 5.92649 8.82275 8.04737 9.02752 10.0482C9.06229 10.3683 9.2207 10.6605 9.48343 10.8365C10.1402 11.2767 10.8009 11.7089 11.4693 12.1331C11.7514 12.3092 12.1145 12.1611 12.2073 11.837C12.6864 10.1643 12.5318 6.78685 12.3386 4.63394C12.3155 4.37784 12.1107 4.18576 11.8634 4.18976H11.8673Z" fill="#9D1C4E"/>
<path d="M18.7948 5.75041C18.7948 5.46229 18.6287 5.19417 18.3698 5.09413C17.2919 4.67796 16.1405 4.43386 14.9621 4.3018C14.796 4.28179 14.2435 4.24178 14.0774 4.22577C13.6562 4.18975 13.5674 4.18975 12.7058 3.94165C12.8796 5.7224 13.1965 10.3323 12.4778 12.2491C12.389 12.4852 12.4662 12.7493 12.671 12.8774C12.8603 12.9974 13.0535 13.1175 13.2467 13.2335C13.2506 13.2335 13.2544 13.2375 13.2583 13.2415C13.9112 13.6337 14.5758 14.0179 15.2403 14.394C15.4799 14.5301 15.7889 14.4821 15.9667 14.266C18.4548 11.2847 18.7948 7.54316 18.7987 5.75041H18.7948Z" fill="#E2181D"/>
<path d="M21.6073 7.19905C20.881 6.45474 20.0696 6.08658 19.2235 5.29425C19.2544 6.99896 18.9685 11.2487 16.2871 14.4941C16.1442 14.6702 16.1867 14.9383 16.3837 15.0423C17.5776 15.6866 17.8017 15.8427 19.0419 16.4389C19.0419 16.4389 20.4096 17.0192 20.4173 17.0192C21.2866 16.7991 21.986 15.8227 22.55 15.1624C23.1257 14.4861 23.883 13.6537 24.1032 12.7574C24.6016 10.7325 22.89 8.5116 21.6073 7.19905Z" fill="#E88516"/>
<path d="M28.9831 35.767C25.3823 35.767 21.9359 34.6145 20.0157 31.7053C16.9403 27.0514 18.223 20.8368 19.6023 17.2233C21.3757 12.5773 25.0191 7.11902 29.0875 3.62556C33.662 -0.304084 39.4033 -1.09241 42.6255 1.52068C44.4917 3.03331 45.5657 5.37429 45.5735 7.94337C45.5812 11.0887 43.9933 14.202 41.2115 16.4829C37.201 19.7763 33.1983 21.317 24.7255 22.5575C24.0261 24.1662 24.6405 26.3191 25.0616 26.8593C25.7764 27.9678 26.8659 29.0202 30.1306 28.556C34.3265 27.9597 38.6962 25.3306 41.0685 21.385C41.5515 20.5807 42.2546 19.7723 43.1703 19.7803C44.0667 19.7883 46.0448 19.8283 46.7519 19.8203L49.7578 19.7483C49.553 19.9964 49.3598 20.4246 49.2439 20.6807C45.5657 28.8641 37.7806 34.6626 31.0695 35.615C30.3625 35.715 29.667 35.767 28.9909 35.767H28.9831ZM32.3638 10.0723C30.9459 11.6009 29.5859 13.4377 28.5929 14.9943C32.669 14.0659 34.9447 12.5413 36.9422 10.9046C38.0433 10.0002 38.7001 8.90377 38.6962 7.96738C38.6962 7.89135 38.6963 7.79931 38.6808 7.69526C38.6344 7.35912 38.3447 7.11902 38.0163 7.11902C37.031 7.11902 36.3008 7.31511 35.0336 7.97538C34.029 8.4996 33.1404 9.23191 32.3599 10.0723H32.3638Z" fill="#3E3A39"/>
</svg>
