<?xml version="1.0" encoding="UTF-8"?><svg id="_レイヤー_2" xmlns="http://www.w3.org/2000/svg" viewBox="0 0 126.97 89.38"><g id="Layer_1"><path d="m19.41,24.86c.57.39,1.34-.09,1.25-.78-.66-4.82-2.39-10.21-4.7-12.69-.09-.1-.36-.21-.5-.24-.39-.11-.99-.16-1.62-.16-3.33-.03-6.58-.44-9.86-.98-1.29-.21-2.7-.47-3.98-.96,0,0,0,0,0,0,2.94,3.3,6.29,6.2,9.79,8.88,3.14,2.41,6.35,4.72,9.61,6.94Z" style="fill:#3a3084; stroke-width:0px;"/><path d="m27.06,33.83c.93-.08,1.84-.25,2.76-.42.35-.06.44-.52.13-.71-2.88-1.76-5.73-3.58-8.56-5.45-.11-.02-.23-.1-.32-.21-.56-.37-1.11-.74-1.67-1.11-5.45-3.66-10.99-7.44-15.83-11.93,0,0,0,0,0,0,1.92,2.68,3.75,5.41,5.48,8.23,1.82,2.98,5.14,9.2,5.24,9.31,2.04,2.18,5.88,2.32,8.67,2.39,1.36.03,2.74.03,4.1-.1Z" style="fill:#1597c6; stroke-width:0px;"/><path d="m36.99,47.88c1.86-.77,2.66-1.15,4.46-2.03,1.27-.62,2.45-1.27,3.9-2.03,1.02-.53.98-1.47-.07-2.07-5.7-3.23-10.17-5.96-12.04-7.06-.52-.31-1.13-.42-1.73-.32-1.29.22-3.64.59-5.05.66-1.41.07-2.82.08-4.23.02-2.36-.11-5.08-.04-7.48-1.22,0,0,0,0,0,0,1.07,1.49,1.77,2.93,2.53,4.66,1.23,2.79,2.3,5.79,3.85,8.42.74,1.26,1.49,2.37,3.12,3.13,2.93,1.37,8.74-.51,12.74-2.16Z" style="fill:#4db45b; stroke-width:0px;"/><path d="m42.72,46.49c-.74.4-1.51.78-2.28,1.13-4.55,2.05-9.76,4.23-14.99,3.72.63.41,1.29.77,1.98,1.08,4.67,2.11,10.89,2.48,15.67.51,3.98-1.64,6.13-4.31,7.87-8.09,0,0,0,0,0,0-.63-.29-1.38-.83-2.01-1.12-.68-.32-1.42-.06-2.07.33-1.9,1.16-2.53,1.57-4.16,2.45Z" style="fill:#e8da23; stroke-width:0px;"/><path d="m28.91,10.47c-4.07.08-8.84.42-12.06,0,0,0,0,0,0,0,2.55,4.34,4.18,9.64,4.71,14.64.09.8.5,1.53,1.18,1.97,1.7,1.1,3.41,2.18,5.14,3.24.73.44,1.67.07,1.91-.74,1.24-4.18.84-12.62.34-18-.06-.64-.59-1.12-1.23-1.11Z" style="fill:#9d1c4e; stroke-width:0px;"/><path d="m46.84,14.37c0-.72-.43-1.39-1.1-1.64-2.79-1.04-5.77-1.65-8.82-1.98-.43-.05-1.86-.15-2.29-.19-1.09-.09-1.32-.09-3.55-.71,0,0,0,0,0,0,.45,4.45,1.27,15.97-.59,20.76-.23.59-.03,1.25.5,1.57.49.3.99.6,1.49.89.01,0,.02.01.03.02,1.69.98,3.41,1.94,5.13,2.88.62.34,1.42.22,1.88-.32,6.44-7.45,7.32-16.8,7.33-21.28Z" style="fill:#e2181d; stroke-width:0px;"/><path d="m54.13,17.99c-1.88-1.86-3.98-2.78-6.17-4.76,0,0,0,0,0,0,.08,4.26-.66,14.88-7.6,22.99-.37.44-.26,1.11.25,1.37,3.09,1.61,3.67,2,6.88,3.49h0s3.54,1.45,3.56,1.45c0,0,0,0,0,0,2.25-.55,4.06-2.99,5.52-4.64,1.49-1.69,3.45-3.77,4.02-6.01,1.29-5.06-3.14-10.61-6.46-13.89Z" style="fill:#e88516; stroke-width:0px;"/><path d="m73.22,89.38c-9.32,0-18.24-2.88-23.21-10.15-7.96-11.63-4.64-27.16-1.07-36.19,4.59-11.61,14.02-25.25,24.55-33.98C85.32-.76,100.19-2.73,108.53,3.8c4.83,3.78,7.61,9.63,7.63,16.05.02,7.86-4.09,15.64-11.29,21.34-10.38,8.23-20.74,12.08-42.67,15.18h0c-1.81,4.02-.22,9.4.87,10.75h0c1.85,2.77,4.67,5.4,13.12,4.24,10.86-1.49,22.17-8.06,28.31-17.92,1.25-2.01,3.07-4.03,5.44-4.01,2.32.02,7.44.12,9.27.1l7.78-.18c-.53.62-1.03,1.69-1.33,2.33-9.52,20.45-29.67,34.94-47.04,37.32-1.83.25-3.63.38-5.38.38Zm8.75-64.21c-3.67,3.82-7.19,8.41-9.76,12.3,0,0,0,0,0,0,10.55-2.32,16.44-6.13,21.61-10.22,2.85-2.26,4.55-5,4.54-7.34,0-.19,0-.42-.04-.68-.12-.84-.87-1.44-1.72-1.44-2.55,0-4.44.49-7.72,2.14-2.6,1.31-4.9,3.14-6.92,5.24Z" style="fill:#3e3a39; stroke-width:0px;"/></g></svg>