<svg xmlns="http://www.w3.org/2000/svg" id="the-shape-wave-2" viewBox="0 0 1600 440">
<defs><style>.mph_1{fill:#5A9A58;}.mph_2{fill:#fff;}</style></defs>
<g>
<path class="mph_1" d="M1599.47.14c-5,0-9.75.2-13.65.37h-.53v0c-6.15.28-10.18.61-10.18.61h0c-12.68.78-26.23,2.4-39.87,4.53-8.65,1.48-16.27,2.81-23,4-13.24,2.53-26.09,5.35-37.8,8.11h0l-.14,0-.15,0-.74.18c-11.44,2.7-21.75,5.34-30.17,7.59-3.61,1-7.59,2.13-12.27,3.36l-5.13,1.45q-15.43,4.23-35.64,10c-40.63,11.68-54.84,18.73-84.06,24.18-1.53.28-3.06.56-4.58.82l-.73.13-2,.33c-9.24,1.51-20,2.91-33.33,4.27A415.52,415.52,0,0,1,1187,70c-7.14-.87-14.26-1.89-21.25-3h0c-1.47-.24-2.93-.47-4.38-.72h0c-18.06-2.75-63.53-12.43-85.16-18.18S1029,34.85,1029,34.84C938.11,12.39,870.49,3.77,866.47,3.27A721.35,721.35,0,0,0,786.25.12a628.82,628.82,0,0,0-79.46,6.72C680.84,12.18,663,13,619,28c-26.26,9-50.76,15.4-66.25,19.14-.85.19-1.73.39-2.68.65-8.86,2.1-14.15,3.18-14.15,3.18h0c-2.55.61-5.15,1.2-7.78,1.77A454.1,454.1,0,0,1,459.67,60c-14-.16-26.45-.31-37.68-.5-1.51,0-87.71-3.06-159.74-21.75-47.84-12.42-99.72-21.63-129.32-26.44q-13-2.18-23.72-3.67l-.68-.1h0c-18.74-2.64-32-3.88-39.3-4.44q-6-.42-12.29-.77C54.81,2.18,28.71.17,0,.12V431.6H1600V.12Z"/>
<path class="mph_2" d="M1581.33,4.22v0c-29.79.45-96.69,6.81-211.16,44.28-9,2.94-17.74,5.65-26.28,8.17q-.71.18-1.41.42c-2.41.7-4.78,1.37-7.16,2-63.48,17.55-121.69,15.26-156.22,11.12-27.51-4-59.88-10.61-98.85-20.5C922.25,9.68,897.5,9.67,897.5,9.67h0c-143-23.34-225.42,4-290.55,24.61a96.41,96.41,0,0,0-10.72,2.81h0c-10.56,2.85-19.74,5.55-27.37,7.92A533.54,533.54,0,0,1,416.42,61.6c-6.6-.42-13.61-.93-21.14-1.54h0c-14.14-1.15-30.14-2.64-48.86-4.44-35-5.32-70.49-12.7-107.09-21.81C218.84,28.7,197.84,24.5,177.2,21h0S125.9,10,56.94,6.14C54.81,6,28.71,3.94,0,3.89V440H1600V3.89C1593.81,3.89,1587.52,4,1581.33,4.22Z"/>
</g>
</svg>