<svg width="538" height="390" viewBox="0 0 538 390" fill="none" xmlns="http://www.w3.org/2000/svg">
<path d="M320.625 114.497C283.245 81.2089 236.427 55.0723 174.066 20.5078C111.744 -23.6163 45.3545 -100.111 2.00519 -191.076L2.88137 -267.432L555.877 -256.817C555.879 -256.795 555.88 -256.774 555.882 -256.753C555.974 -255.513 556.109 -253.674 556.284 -251.274C556.633 -246.475 557.138 -239.437 557.762 -230.482C559.011 -212.571 560.737 -186.991 562.646 -156.318C566.463 -94.9707 571.008 -13.2565 573.925 68.223C576.841 149.715 578.126 230.923 575.429 291.278C574.08 321.474 571.737 346.35 568.133 363.409C566.325 371.963 564.233 378.386 561.886 382.512C559.499 386.708 557.27 387.871 555.279 387.591C503.976 380.359 446.327 341.875 410.862 251.582C386.033 188.369 358.102 147.871 320.625 114.497Z" fill="white" stroke="#5A9A58" stroke-width="4"/>
</svg>
