<?xml version="1.0" encoding="UTF-8"?><svg id="_レイヤー_1" xmlns="http://www.w3.org/2000/svg" viewBox="0 0 3016.09 224.62"><path d="m80.24,29.88c19.58,0,36.3,6.79,50.16,20.38,13.85,13.59,20.78,30.64,20.78,51.16s-6.93,37.74-20.78,51.26c-13.86,13.52-30.57,20.28-50.16,20.28s-36.47-6.76-50.26-20.28c-13.79-13.52-20.68-30.61-20.68-51.26s6.89-37.57,20.68-51.16,30.54-20.38,50.26-20.38Zm0,7.79c-14.52,0-26.65,5.7-36.37,17.09-9.73,11.39-14.59,26.95-14.59,46.66s4.86,35.47,14.59,46.86c9.72,11.39,21.85,17.02,36.37,16.89,14.39,0,26.48-5.66,36.27-16.99,9.79-11.32,14.69-26.91,14.69-46.76s-4.9-35.27-14.69-46.66-21.88-17.09-36.27-17.09Z" style="fill:#fff; stroke:#d9d9d9; stroke-miterlimit:10; stroke-width:3px;"/><path d="m169.36,31.47h52.76c15.59,0,27.11,1.73,34.57,5.2,7.46,3.47,12.92,8.53,16.39,15.19,1.06,2.4,1.93,4.86,2.6,7.39.67,2.53,1,5.06,1,7.59,0,8.93-2.5,16.62-7.49,23.08-5,6.46-12.09,10.83-21.28,13.09l28.78,47.56c3.46,5.86,6.46,9.63,8.99,11.29,2.53,1.67,5.4,2.57,8.59,2.7v6.79h-25.38l-39.57-65.35h-30.97v42.36c-.13,5.33.76,9.26,2.7,11.79,1.93,2.53,4.96,4,9.09,4.4v6.79h-40.77v-6.79c4-.4,6.96-1.8,8.89-4.2,1.93-2.4,2.9-6.39,2.9-11.99V54.45c0-5.33-.97-9.22-2.9-11.69-1.93-2.46-4.9-3.96-8.89-4.5v-6.79Zm28.98,66.75h20.58c12.26,0,21.61-2.43,28.08-7.29,6.46-4.86,9.69-12.42,9.69-22.68s-2.97-17.29-8.89-21.88c-5.93-4.6-15.56-6.96-28.88-7.09h-20.58v58.95Z" style="fill:#fff; stroke:#d9d9d9; stroke-miterlimit:10; stroke-width:3px;"/><path d="m423.75,35.27v30.77h-6.79c-3.6-8.79-9.16-15.72-16.69-20.78-7.53-5.06-16.75-7.59-27.68-7.59-14.79,0-26.48,5.6-35.07,16.79-8.59,11.19-12.89,25.91-12.89,44.16-.13,15.46,2.4,28.58,7.59,39.37,5.2,10.79,12.65,18.38,22.38,22.78,3.06,1.47,6.56,2.57,10.49,3.3,3.93.73,8.89,1.1,14.89,1.1,9.86.13,18.05-2.36,24.58-7.49,6.53-5.13,10.19-12.02,10.99-20.68.4-4.8-.4-8.69-2.4-11.69-2-3-5.13-4.63-9.39-4.9v-6.79h28.98v48.56c-12.39,4.27-22.38,7.13-29.98,8.59-7.59,1.46-15.39,2.2-23.38,2.2-12.26,0-22.98-1.47-32.17-4.4s-16.92-7.66-23.18-14.19c-6.4-6.39-11.23-14.15-14.49-23.28-3.27-9.12-4.9-20.08-4.9-32.87,0-7.73,1.4-15.52,4.2-23.38,2.8-7.86,6.66-14.85,11.59-20.98,6.39-7.86,14.15-13.82,23.28-17.89,9.12-4.06,18.68-6.09,28.68-6.09,5.86,0,11.26.47,16.19,1.4,4.93.93,9.66,2.27,14.19,4,1.86.93,3.7,1.57,5.5,1.9,1.8.33,3.56.5,5.3.5.4,0,.8-.07,1.2-.2.4-.13.86-.4,1.4-.8.13-.13.3-.3.5-.5.2-.2.43-.5.7-.9h6.4Z" style="fill:#fff; stroke:#d9d9d9; stroke-miterlimit:10; stroke-width:3px;"/><path d="m516.27,29.88l53.96,119.9c2.26,5.2,4.56,8.93,6.89,11.19,2.33,2.27,5.03,3.47,8.09,3.6v6.79h-39.17v-6.79c2.66-.4,4.53-1.1,5.6-2.1,1.06-1,1.6-2.9,1.6-5.7-.13-.4-.37-1.17-.7-2.3-.33-1.13-.7-2.3-1.1-3.5l-7.99-17.99h-69.54l-7.79,16.99c-.8,1.73-1.43,3.2-1.9,4.4-.47,1.2-.63,2.07-.5,2.6-.13,2.13.47,3.83,1.8,5.1,1.33,1.27,3.33,2.1,6,2.5v6.79h-30.97v-6.79c2.93-.13,5.8-1.5,8.59-4.1,2.8-2.6,5.2-5.96,7.19-10.09l44.96-97.12c.53-1.33.96-2.36,1.3-3.1.33-.73.5-1.36.5-1.9,0-.93-.4-1.66-1.2-2.2-.8-.53-2-.8-3.6-.8v-6.79c2.26-.53,4.76-1.66,7.49-3.4,2.73-1.73,4.9-3.46,6.49-5.2h4Zm23.58,95.32l-29.58-65.75h-2.2l-30.57,65.75h62.35Z" style="fill:#fff; stroke:#d9d9d9; stroke-miterlimit:10; stroke-width:3px;"/><path d="m595.61,171.36v-6.79c3.46.53,6.33-.63,8.59-3.5,2.26-2.86,3.4-6.56,3.4-11.09V55.05c-.13-5.2-1.27-9.26-3.4-12.19-2.13-2.93-5-4.46-8.59-4.6v-6.79h28.36l84.95,107.46.6-.21V54.06c-.13-5.2-1.13-8.99-3-11.39-1.87-2.4-4.8-3.86-8.79-4.4v-6.79h31.37v6.79c-4.4.93-7.46,2.5-9.19,4.7-1.73,2.2-2.6,5.9-2.6,11.09v117.3h-6l-95.12-120.7h-.8v99.32c-.13,4,.83,7.43,2.9,10.29,2.06,2.87,5.03,4.3,8.89,4.3v6.79h-31.57Z" style="fill:#fff; stroke:#d9d9d9; stroke-miterlimit:10; stroke-width:3px;"/><path d="m790.64,31.47v6.79c-4.13.4-7.16,2-9.09,4.8-1.93,2.8-2.83,6.59-2.7,11.39v93.92c-.13,5.07.73,8.93,2.6,11.59,1.86,2.67,4.93,4.2,9.19,4.6v6.79h-40.77v-6.79c4.13-.4,7.09-1.93,8.89-4.6,1.8-2.66,2.76-6.53,2.9-11.59V54.45c-.13-5.2-1.17-9.09-3.1-11.69-1.93-2.6-4.83-4.1-8.69-4.5v-6.79h40.77Z" style="fill:#fff; stroke:#d9d9d9; stroke-miterlimit:10; stroke-width:3px;"/><path d="m924.93,65.45h-6.79c-3.33-8.39-8.69-15.12-16.09-20.18-7.39-5.06-15.89-7.59-25.48-7.59-14.12,0-25.61,6.13-34.47,18.38-8.86,12.26-13.29,27.71-13.29,46.36,0,19.98,4.7,35.44,14.09,46.36,9.39,10.92,21.88,16.39,37.47,16.39,8.39,0,16.72-2.03,24.98-6.09,8.26-4.06,15.19-9.29,20.78-15.69l4.2,4.6c-7.46,8.39-15.82,14.66-25.08,18.78-9.26,4.13-18.82,6.2-28.68,6.2-19.85,0-36.1-6.36-48.76-19.08-12.66-12.72-18.98-29.94-18.98-51.66s6.19-38.03,18.58-51.76c12.39-13.72,28.24-20.58,47.56-20.58,4.13,0,8.36.33,12.69,1,4.33.67,9.42,1.8,15.29,3.4,3.33,1.07,6.1,1.8,8.29,2.2,2.2.4,4.16.6,5.9.6.67,0,1.33-.13,2-.4.67-.27,1.6-.93,2.8-2h3v30.77Z" style="fill:#fff; stroke:#d9d9d9; stroke-miterlimit:10; stroke-width:3px;"/><path d="m999.27,31.47h82.53c4.4.13,8.82-.03,13.29-.5,4.46-.47,8.36-.83,11.69-1.1v26.58h-6.79c-1.73-6.26-4.96-10.69-9.69-13.29-4.73-2.6-11.89-3.9-21.48-3.9h-40.37v54.36h28.98c5.2.13,9.02-.7,11.49-2.5,2.46-1.8,4.1-4.7,4.9-8.69h6.79v30.17h-6.79c-.93-4.26-2.43-7.19-4.5-8.79-2.07-1.6-5.63-2.4-10.69-2.4h-30.17v46.96c0,5.46.93,9.43,2.8,11.89,1.86,2.47,4.86,3.9,8.99,4.3v6.79h-40.97v-6.79c4.26-.27,7.33-1.76,9.19-4.5,1.86-2.73,2.8-6.62,2.8-11.69V54.45c0-4.8-.97-8.59-2.9-11.39-1.93-2.8-4.96-4.4-9.09-4.8v-6.79Z" style="fill:#fff; stroke:#d9d9d9; stroke-miterlimit:10; stroke-width:3px;"/><path d="m1183.91,29.88l53.96,119.9c2.26,5.2,4.56,8.93,6.89,11.19,2.33,2.27,5.03,3.47,8.09,3.6v6.79h-39.17v-6.79c2.66-.4,4.53-1.1,5.6-2.1,1.06-1,1.6-2.9,1.6-5.7-.13-.4-.37-1.17-.7-2.3-.33-1.13-.7-2.3-1.1-3.5l-7.99-17.99h-69.54l-7.79,16.99c-.8,1.73-1.43,3.2-1.9,4.4-.47,1.2-.63,2.07-.5,2.6-.13,2.13.47,3.83,1.8,5.1,1.33,1.27,3.33,2.1,6,2.5v6.79h-30.97v-6.79c2.93-.13,5.79-1.5,8.59-4.1,2.8-2.6,5.2-5.96,7.19-10.09l44.96-97.12c.53-1.33.96-2.36,1.3-3.1.33-.73.5-1.36.5-1.9,0-.93-.4-1.66-1.2-2.2-.8-.53-2-.8-3.6-.8v-6.79c2.26-.53,4.76-1.66,7.49-3.4,2.73-1.73,4.9-3.46,6.5-5.2h4Zm23.58,95.32l-29.58-65.75h-2.2l-30.57,65.75h62.35Z" style="fill:#fff; stroke:#d9d9d9; stroke-miterlimit:10; stroke-width:3px;"/><path d="m1263.25,31.47h52.76c15.59,0,27.11,1.73,34.57,5.2,7.46,3.47,12.92,8.53,16.39,15.19,1.06,2.4,1.93,4.86,2.6,7.39.67,2.53,1,5.06,1,7.59,0,8.93-2.5,16.62-7.49,23.08-5,6.46-12.09,10.83-21.28,13.09l28.78,47.56c3.46,5.86,6.46,9.63,8.99,11.29,2.53,1.67,5.4,2.57,8.59,2.7v6.79h-25.38l-39.57-65.35h-30.97v42.36c-.13,5.33.77,9.26,2.7,11.79,1.93,2.53,4.96,4,9.09,4.4v6.79h-40.77v-6.79c4-.4,6.96-1.8,8.89-4.2,1.93-2.4,2.9-6.39,2.9-11.99V54.45c0-5.33-.97-9.22-2.9-11.69-1.93-2.46-4.9-3.96-8.89-4.5v-6.79Zm28.98,66.75h20.58c12.26,0,21.61-2.43,28.08-7.29,6.46-4.86,9.69-12.42,9.69-22.68s-2.97-17.29-8.89-21.88c-5.93-4.6-15.56-6.96-28.88-7.09h-20.58v58.95Z" style="fill:#fff; stroke:#d9d9d9; stroke-miterlimit:10; stroke-width:3px;"/><path d="m1437.3,31.47l44.76,113.71h.8l46.76-113.71h35.77v6.79c-4,.53-6.96,2.07-8.89,4.6-1.93,2.53-2.9,6.39-2.9,11.59v93.92c-.13,4.93.83,8.83,2.9,11.69,2.06,2.87,5.03,4.37,8.89,4.5v6.79h-40.77v-6.79c3.6-.13,6.43-1.56,8.49-4.29,2.06-2.73,3.16-6.68,3.3-11.87V39.27h-.6l-55.35,133.69h-6.59l-52.56-133.69h-.6v109.51c-.13,5.06.86,8.93,3,11.59,2.13,2.67,5.13,4.07,8.99,4.2v6.79h-31.57v-6.79c4.13-.4,7.09-1.9,8.89-4.5,1.8-2.6,2.76-6.36,2.9-11.29V50.26c-.13-3.46-1.23-6.26-3.3-8.39-2.07-2.13-4.9-3.33-8.49-3.6v-6.79h36.17Z" style="fill:#fff; stroke:#d9d9d9; stroke-miterlimit:10; stroke-width:3px;"/><path d="m1626.94,31.47v6.79c-4.13.4-7.16,2-9.09,4.8-1.93,2.8-2.83,6.59-2.7,11.39v93.92c-.13,5.07.73,8.93,2.6,11.59,1.86,2.67,4.93,4.2,9.19,4.6v6.79h-40.77v-6.79c4.13-.4,7.09-1.93,8.89-4.6,1.8-2.66,2.76-6.53,2.9-11.59V54.45c-.13-5.2-1.17-9.09-3.1-11.69-1.93-2.6-4.83-4.1-8.69-4.5v-6.79h40.77Z" style="fill:#fff; stroke:#d9d9d9; stroke-miterlimit:10; stroke-width:3px;"/><path d="m1647.73,171.36v-6.79c3.46.53,6.33-.63,8.59-3.5,2.26-2.86,3.4-6.56,3.4-11.09V55.05c-.13-5.2-1.27-9.26-3.4-12.19-2.13-2.93-5-4.46-8.59-4.6v-6.79h28.36l84.95,107.46.6-.21V54.06c-.13-5.2-1.13-8.99-3-11.39-1.87-2.4-4.8-3.86-8.79-4.4v-6.79h31.38v6.79c-4.4.93-7.46,2.5-9.19,4.7-1.73,2.2-2.6,5.9-2.6,11.09v117.3h-6l-95.12-120.7h-.8v99.32c-.13,4,.83,7.43,2.9,10.29,2.06,2.87,5.03,4.3,8.89,4.3v6.79h-31.57Z" style="fill:#fff; stroke:#d9d9d9; stroke-miterlimit:10; stroke-width:3px;"/><path d="m1918.5,35.27v30.77h-6.79c-3.6-8.79-9.16-15.72-16.69-20.78-7.53-5.06-16.75-7.59-27.68-7.59-14.79,0-26.48,5.6-35.07,16.79-8.59,11.19-12.89,25.91-12.89,44.16-.13,15.46,2.4,28.58,7.59,39.37,5.2,10.79,12.66,18.38,22.38,22.78,3.06,1.47,6.56,2.57,10.49,3.3,3.93.73,8.89,1.1,14.89,1.1,9.86.13,18.05-2.36,24.58-7.49,6.53-5.13,10.19-12.02,10.99-20.68.4-4.8-.4-8.69-2.4-11.69-2-3-5.13-4.63-9.39-4.9v-6.79h28.98v48.56c-12.39,4.27-22.38,7.13-29.97,8.59-7.59,1.46-15.39,2.2-23.38,2.2-12.26,0-22.98-1.47-32.17-4.4s-16.92-7.66-23.18-14.19c-6.39-6.39-11.23-14.15-14.49-23.28-3.27-9.12-4.9-20.08-4.9-32.87,0-7.73,1.4-15.52,4.2-23.38,2.8-7.86,6.66-14.85,11.59-20.98,6.39-7.86,14.15-13.82,23.28-17.89,9.12-4.06,18.68-6.09,28.68-6.09,5.86,0,11.26.47,16.19,1.4,4.93.93,9.66,2.27,14.19,4,1.86.93,3.7,1.57,5.5,1.9,1.8.33,3.56.5,5.3.5.4,0,.8-.07,1.2-.2.4-.13.86-.4,1.4-.8.13-.13.3-.3.5-.5.2-.2.43-.5.7-.9h6.39Z" style="fill:#fff; stroke:#d9d9d9; stroke-miterlimit:10; stroke-width:3px;"/><path d="m2031.4,31.47l44.76,113.71h.8l46.76-113.71h35.77v6.79c-4,.53-6.96,2.07-8.89,4.6-1.93,2.53-2.9,6.39-2.9,11.59v93.92c-.13,4.93.83,8.83,2.9,11.69,2.06,2.87,5.03,4.37,8.89,4.5v6.79h-40.77v-6.79c3.6-.13,6.43-1.56,8.49-4.29,2.06-2.73,3.16-6.68,3.3-11.87V39.27h-.6l-55.35,133.69h-6.59l-52.56-133.69h-.6v109.51c-.13,5.06.86,8.93,3,11.59,2.13,2.67,5.13,4.07,8.99,4.2v6.79h-31.57v-6.79c4.13-.4,7.09-1.9,8.89-4.5,1.8-2.6,2.76-6.36,2.9-11.29V50.26c-.13-3.46-1.23-6.26-3.3-8.39-2.07-2.13-4.9-3.33-8.49-3.6v-6.79h36.17Z" style="fill:#fff; stroke:#d9d9d9; stroke-miterlimit:10; stroke-width:3px;"/><path d="m2180.28,31.47h78.74c6.53.13,11.16-.13,13.89-.8,2.73-.67,6.43-.93,11.09-.8v26.58h-6.79c-1.73-6.26-4.96-10.66-9.69-13.19-4.73-2.53-11.89-3.86-21.48-4h-36.57v57.35h24.98c5.73,0,9.69-.9,11.89-2.7,2.2-1.8,3.7-4.63,4.5-8.49h6.59v30.18h-6.59c-1.33-4.4-2.9-7.36-4.7-8.89-1.8-1.53-5.7-2.3-11.69-2.3h-24.98v59.15h40.97c12.79,0,22.21-1.8,28.28-5.4,6.06-3.6,9.42-9.19,10.09-16.79h6.79l-2.2,29.98h-113.11v-6.79c3.86-.4,6.83-1.86,8.89-4.4,2.06-2.53,3.1-6.46,3.1-11.79V54.45c0-5.6-.97-9.66-2.9-12.19-1.93-2.53-4.96-3.86-9.09-4v-6.79Z" style="fill:#fff; stroke:#d9d9d9; stroke-miterlimit:10; stroke-width:3px;"/><path d="m2303.38,56.85v-26.98l45.36,1.6h39.97l45.36-1.6v26.98h-6.79c-.27-5.33-2.4-9.59-6.4-12.79-4-3.2-9.13-4.8-15.39-4.8h-28.18v109.11c0,5.46.9,9.43,2.7,11.89,1.8,2.47,4.83,3.9,9.09,4.3v6.79h-40.97v-6.79c4.13-.4,7.12-1.83,8.99-4.3,1.86-2.46,2.86-6.43,3-11.89V39.27h-28.38c-6.26,0-11.12,1.43-14.59,4.3-3.47,2.87-5.8,7.29-6.99,13.29h-6.79Z" style="fill:#fff; stroke:#d9d9d9; stroke-miterlimit:10; stroke-width:3px;"/><path d="m2487.83,31.47v6.79c-4.27.4-7.33,1.93-9.19,4.6-1.87,2.67-2.73,6.53-2.6,11.59v41.77h80.53v-41.77c-.13-5.06-1.07-8.89-2.8-11.49-1.73-2.6-4.73-4.16-8.99-4.7v-6.79h40.97v6.79c-4,.4-7.03,1.9-9.09,4.5-2.07,2.6-3.03,6.49-2.9,11.69v93.92c0,5.07.96,8.96,2.9,11.69,1.93,2.73,4.96,4.23,9.09,4.5v6.79h-40.97v-6.79c4.26-.4,7.26-1.9,8.99-4.5,1.73-2.6,2.66-6.49,2.8-11.69v-44.36h-80.53v44.36c-.13,5.46.77,9.46,2.7,11.99,1.93,2.53,4.96,3.93,9.09,4.2v6.79h-40.77v-6.79c4-.27,6.96-1.67,8.89-4.2,1.93-2.53,2.9-6.53,2.9-11.99V54.45c-.13-5.33-1.13-9.26-3-11.79-1.87-2.53-4.8-4-8.79-4.4v-6.79h40.77Z" style="fill:#fff; stroke:#d9d9d9; stroke-miterlimit:10; stroke-width:3px;"/><path d="m2674.87,29.88c19.58,0,36.3,6.79,50.16,20.38,13.85,13.59,20.78,30.64,20.78,51.16s-6.93,37.74-20.78,51.26c-13.86,13.52-30.57,20.28-50.16,20.28s-36.47-6.76-50.26-20.28c-13.79-13.52-20.68-30.61-20.68-51.26s6.89-37.57,20.68-51.16,30.54-20.38,50.26-20.38Zm0,7.79c-14.52,0-26.65,5.7-36.37,17.09-9.73,11.39-14.59,26.95-14.59,46.66s4.86,35.47,14.59,46.86c9.72,11.39,21.85,17.02,36.37,16.89,14.39,0,26.48-5.66,36.27-16.99,9.79-11.32,14.69-26.91,14.69-46.76s-4.9-35.27-14.69-46.66-21.88-17.09-36.27-17.09Z" style="fill:#fff; stroke:#d9d9d9; stroke-miterlimit:10; stroke-width:3px;"/><path d="m2764,31.47h58.55c13.99.13,26.31,2.5,36.97,7.09,10.66,4.6,19.51,11.89,26.58,21.88,4.13,6.13,7.26,12.72,9.39,19.78,2.13,7.06,3.2,14.52,3.2,22.38,0,8.93-1.5,17.45-4.5,25.58-3,8.13-7.36,15.46-13.09,21.98-6.53,7.46-14.49,12.86-23.88,16.19-9.39,3.33-20.88,5-34.47,5h-58.75v-6.79c4.13-.27,7.16-1.67,9.09-4.2,1.93-2.53,2.9-6.53,2.9-11.99V54.45c0-5.33-.97-9.26-2.9-11.79-1.93-2.53-4.96-4-9.09-4.4v-6.79Zm29.18,132.09h25.18c19.31,0,34.2-5.36,44.66-16.09,10.46-10.72,15.69-25.88,15.69-45.46s-5.73-36.1-17.19-46.76c-11.46-10.66-25.85-15.99-43.16-15.99h-25.18v124.3Z" style="fill:#fff; stroke:#d9d9d9; stroke-miterlimit:10; stroke-width:3px;"/><path d="m3000.6,68.04h-7.79c-3.6-9.46-8.33-16.89-14.19-22.28-5.86-5.4-12.59-8.09-20.18-8.09s-13.69,2.1-18.29,6.29c-4.6,4.2-6.89,9.63-6.89,16.29,0,6.13,2.16,11.26,6.49,15.39,4.33,4.13,11.62,7.66,21.88,10.59,7.59,2.27,12.32,3.73,14.19,4.4,1.86.67,3.86,1.47,6,2.4,8.26,3.87,14.72,8.89,19.38,15.09,4.66,6.2,6.99,13.62,6.99,22.28,0,11.59-4.17,21.58-12.49,29.97-8.33,8.39-18.15,12.59-29.48,12.59-3.07,0-6.56-.27-10.49-.8-3.93-.53-7.36-1.26-10.29-2.2-7.06-2-11.06-3.1-11.99-3.3-.93-.2-1.8-.3-2.6-.3-2.13.13-3.97.6-5.5,1.4-1.53.8-2.57,2-3.1,3.6h-6.59v-43.16h6.79c2.8,9.99,8.46,18.68,16.99,26.08,8.52,7.39,17.99,11.03,28.38,10.89,7.06,0,13.19-2.66,18.38-7.99,5.2-5.33,7.79-11.79,7.79-19.38-.13-6.26-2.07-11.66-5.8-16.19-3.73-4.53-9.06-8.26-15.99-11.19-3.2-1.2-7.46-2.53-12.79-4-5.33-1.46-9.13-2.66-11.39-3.6-8.93-3.2-15.92-7.89-20.98-14.09-5.06-6.19-7.53-13.82-7.39-22.88,0-10.39,3.83-18.98,11.49-25.78,7.66-6.79,17.35-10.19,29.08-10.19,4.26,0,8.32.57,12.19,1.7,3.86,1.13,7.99,2.97,12.39,5.5,1.46.93,2.63,1.57,3.5,1.9.86.33,1.7.43,2.5.3.67,0,1.3-.13,1.9-.4.6-.27,1.56-1.06,2.9-2.4h5v31.57Z" style="fill:#fff; stroke:#d9d9d9; stroke-miterlimit:10; stroke-width:3px;"/></svg>