<?xml version="1.0" encoding="UTF-8"?><svg id="_レイヤー_1" xmlns="http://www.w3.org/2000/svg" viewBox="0 0 2807.05 224.62"><path d="m95.62,68.04h-7.79c-3.6-9.46-8.33-16.89-14.19-22.28-5.86-5.4-12.59-8.09-20.18-8.09s-13.69,2.1-18.28,6.29-6.89,9.63-6.89,16.29c0,6.13,2.16,11.26,6.49,15.39,4.33,4.13,11.62,7.66,21.88,10.59,7.59,2.27,12.32,3.73,14.19,4.4,1.86.67,3.86,1.47,6,2.4,8.26,3.87,14.72,8.89,19.38,15.09,4.66,6.2,6.99,13.62,6.99,22.28,0,11.59-4.17,21.58-12.49,29.97-8.33,8.39-18.15,12.59-29.48,12.59-3.07,0-6.56-.27-10.49-.8-3.93-.53-7.36-1.26-10.29-2.2-7.06-2-11.06-3.1-11.99-3.3-.93-.2-1.8-.3-2.6-.3-2.13.13-3.97.6-5.5,1.4-1.53.8-2.57,2-3.1,3.6h-6.59v-43.16h6.79c2.8,9.99,8.46,18.68,16.99,26.08,8.52,7.39,17.99,11.03,28.38,10.89,7.06,0,13.19-2.66,18.38-7.99,5.2-5.33,7.79-11.79,7.79-19.38-.13-6.26-2.07-11.66-5.8-16.19-3.73-4.53-9.06-8.26-15.99-11.19-3.2-1.2-7.46-2.53-12.79-4-5.33-1.46-9.13-2.66-11.39-3.6-8.93-3.2-15.92-7.89-20.98-14.09-5.06-6.19-7.53-13.82-7.39-22.88,0-10.39,3.83-18.98,11.49-25.78,7.66-6.79,17.35-10.19,29.08-10.19,4.26,0,8.32.57,12.19,1.7,3.86,1.13,7.99,2.97,12.39,5.5,1.46.93,2.63,1.57,3.5,1.9.86.33,1.7.43,2.5.3.67,0,1.3-.13,1.9-.4.6-.27,1.56-1.06,2.9-2.4h5v31.57Z" style="fill:#fff; stroke:#d9d9d9; stroke-miterlimit:10; stroke-width:3px;"/><path d="m160.77,31.47v6.79c-4.27.4-7.33,1.93-9.19,4.6-1.87,2.67-2.73,6.53-2.6,11.59v41.77h80.53v-41.77c-.13-5.06-1.07-8.89-2.8-11.49-1.73-2.6-4.73-4.16-8.99-4.7v-6.79h40.97v6.79c-4,.4-7.03,1.9-9.09,4.5-2.07,2.6-3.03,6.49-2.9,11.69v93.92c0,5.07.96,8.96,2.9,11.69,1.93,2.73,4.96,4.23,9.09,4.5v6.79h-40.97v-6.79c4.26-.4,7.26-1.9,8.99-4.5,1.73-2.6,2.66-6.49,2.8-11.69v-44.36h-80.53v44.36c-.13,5.46.76,9.46,2.7,11.99,1.93,2.53,4.96,3.93,9.09,4.2v6.79h-40.77v-6.79c4-.27,6.96-1.67,8.89-4.2,1.93-2.53,2.9-6.53,2.9-11.99V54.45c-.13-5.33-1.13-9.26-3-11.79-1.87-2.53-4.8-4-8.79-4.4v-6.79h40.77Z" style="fill:#fff; stroke:#d9d9d9; stroke-miterlimit:10; stroke-width:3px;"/><path d="m347.81,29.88c19.58,0,36.3,6.79,50.16,20.38,13.85,13.59,20.78,30.64,20.78,51.16s-6.93,37.74-20.78,51.26c-13.86,13.52-30.57,20.28-50.16,20.28s-36.47-6.76-50.26-20.28c-13.79-13.52-20.68-30.61-20.68-51.26s6.89-37.57,20.68-51.16,30.54-20.38,50.26-20.38Zm0,7.79c-14.52,0-26.65,5.7-36.37,17.09-9.73,11.39-14.59,26.95-14.59,46.66s4.86,35.47,14.59,46.86c9.72,11.39,21.85,17.02,36.37,16.89,14.39,0,26.48-5.66,36.27-16.99,9.79-11.32,14.69-26.91,14.69-46.76s-4.9-35.27-14.69-46.66-21.88-17.09-36.27-17.09Z" style="fill:#fff; stroke:#d9d9d9; stroke-miterlimit:10; stroke-width:3px;"/><path d="m625.58,31.47v6.79c-2.93.13-5.73,1.67-8.39,4.6-2.67,2.93-5.2,7.26-7.59,12.99l-50.96,117.1h-5.27l-26.1-63.52-.6.12-26.98,63.4h-6.24l-49.52-120.5c-2.26-5.33-4.76-8.99-7.49-10.99-2.73-2-6.03-3.06-9.89-3.2v-6.79h44.36v6.79c-2.93,0-5.26.73-6.99,2.2-1.73,1.47-2.6,3.4-2.6,5.8,0,1.07.17,2.27.5,3.6.33,1.33,1.1,3.27,2.3,5.8l37.77,89.93h.6l20.18-47.93-20.08-47.7c-1.73-3.84-3.73-6.66-6-8.45-2.27-1.79-4.93-2.88-7.99-3.28v-6.76h77.23v6.79c-3.6.67-6.69,2.4-9.29,5.2-2.6,2.8-5.03,6.93-7.29,12.39l-12.79,30.38,25.58,59.75h.4l36.97-87.53c.93-2.26,1.66-4.4,2.2-6.4.53-2,.87-3.6,1-4.8,0-2.8-.97-5.03-2.9-6.69-1.93-1.66-4.43-2.43-7.49-2.3v-6.79h33.37Zm-92.92,42.76l9.99-23.58c1.86-4.53,2.16-7.72.9-9.59-1.27-1.86-3.63-2.8-7.09-2.8h-4.4c-5.06,0-8.36.53-9.89,1.6-1.53,1.07-2.3,2.67-2.3,4.8,0,.53.03,1.03.1,1.5.07.47.9,2.57,2.5,6.29l9.19,21.78h1Z" style="fill:#fff; stroke:#d9d9d9; stroke-miterlimit:10; stroke-width:3px;"/><path d="m701.31,29.88l53.96,119.9c2.26,5.2,4.56,8.93,6.89,11.19,2.33,2.27,5.03,3.47,8.09,3.6v6.79h-39.17v-6.79c2.66-.4,4.53-1.1,5.6-2.1,1.06-1,1.6-2.9,1.6-5.7-.13-.4-.37-1.17-.7-2.3-.33-1.13-.7-2.3-1.1-3.5l-7.99-17.99h-69.54l-7.79,16.99c-.8,1.73-1.43,3.2-1.9,4.4-.47,1.2-.63,2.07-.5,2.6-.13,2.13.47,3.83,1.8,5.1,1.33,1.27,3.33,2.1,6,2.5v6.79h-30.97v-6.79c2.93-.13,5.8-1.5,8.59-4.1,2.8-2.6,5.2-5.96,7.19-10.09l44.96-97.12c.53-1.33.96-2.36,1.3-3.1.33-.73.5-1.36.5-1.9,0-.93-.4-1.66-1.2-2.2-.8-.53-2-.8-3.6-.8v-6.79c2.26-.53,4.76-1.66,7.49-3.4,2.73-1.73,4.9-3.46,6.49-5.2h4Zm23.58,95.32l-29.58-65.75h-2.2l-30.57,65.75h62.35Z" style="fill:#fff; stroke:#d9d9d9; stroke-miterlimit:10; stroke-width:3px;"/><path d="m822.41,56.85v-26.98l45.36,1.6h39.97l45.36-1.6v26.98h-6.79c-.27-5.33-2.4-9.59-6.39-12.79-4-3.2-9.13-4.8-15.39-4.8h-28.18v109.11c0,5.46.9,9.43,2.7,11.89,1.8,2.47,4.83,3.9,9.09,4.3v6.79h-40.97v-6.79c4.13-.4,7.13-1.83,8.99-4.3,1.86-2.46,2.86-6.43,3-11.89V39.27h-28.38c-6.26,0-11.13,1.43-14.59,4.3-3.47,2.87-5.8,7.29-6.99,13.29h-6.79Z" style="fill:#fff; stroke:#d9d9d9; stroke-miterlimit:10; stroke-width:3px;"/><path d="m1034.44,29.88c19.58,0,36.3,6.79,50.16,20.38,13.85,13.59,20.78,30.64,20.78,51.16s-6.93,37.74-20.78,51.26c-13.86,13.52-30.57,20.28-50.16,20.28s-36.47-6.76-50.26-20.28c-13.79-13.52-20.68-30.61-20.68-51.26s6.89-37.57,20.68-51.16,30.54-20.38,50.26-20.38Zm0,7.79c-14.52,0-26.65,5.7-36.37,17.09-9.73,11.39-14.59,26.95-14.59,46.66s4.86,35.47,14.59,46.86c9.72,11.39,21.85,17.02,36.37,16.89,14.39,0,26.48-5.66,36.27-16.99,9.79-11.32,14.69-26.91,14.69-46.76s-4.9-35.27-14.69-46.66-21.88-17.09-36.27-17.09Z" style="fill:#fff; stroke:#d9d9d9; stroke-miterlimit:10; stroke-width:3px;"/><path d="m1312.21,31.47v6.79c-2.93.13-5.73,1.67-8.39,4.6-2.67,2.93-5.2,7.26-7.59,12.99l-50.96,117.1h-5.27l-26.1-63.52-.6.12-26.98,63.4h-6.25l-49.52-120.5c-2.26-5.33-4.76-8.99-7.49-10.99-2.73-2-6.03-3.06-9.89-3.2v-6.79h44.36v6.79c-2.93,0-5.26.73-6.99,2.2-1.73,1.47-2.6,3.4-2.6,5.8,0,1.07.17,2.27.5,3.6.33,1.33,1.1,3.27,2.3,5.8l37.77,89.93h.6l20.18-47.93-20.08-47.7c-1.73-3.84-3.73-6.66-6-8.45-2.27-1.79-4.93-2.88-7.99-3.28v-6.76h77.23v6.79c-3.6.67-6.69,2.4-9.29,5.2-2.6,2.8-5.03,6.93-7.29,12.39l-12.79,30.38,25.58,59.75h.4l36.97-87.53c.93-2.26,1.66-4.4,2.2-6.4.53-2,.87-3.6,1-4.8,0-2.8-.97-5.03-2.9-6.69-1.93-1.66-4.43-2.43-7.49-2.3v-6.79h33.37Zm-92.92,42.76l9.99-23.58c1.86-4.53,2.16-7.72.9-9.59-1.27-1.86-3.63-2.8-7.09-2.8h-4.4c-5.06,0-8.36.53-9.89,1.6-1.53,1.07-2.3,2.67-2.3,4.8,0,.53.03,1.03.1,1.5.07.47.9,2.57,2.5,6.29l9.19,21.78h1Z" style="fill:#fff; stroke:#d9d9d9; stroke-miterlimit:10; stroke-width:3px;"/><path d="m1322.59,171.36v-6.79c3.46.53,6.33-.63,8.59-3.5,2.26-2.86,3.4-6.56,3.4-11.09V55.05c-.13-5.2-1.27-9.26-3.4-12.19-2.13-2.93-5-4.46-8.59-4.6v-6.79h28.36l84.95,107.46.6-.21V54.06c-.13-5.2-1.13-8.99-3-11.39-1.87-2.4-4.8-3.86-8.79-4.4v-6.79h31.38v6.79c-4.4.93-7.46,2.5-9.19,4.7-1.73,2.2-2.6,5.9-2.6,11.09v117.3h-6l-95.12-120.7h-.8v99.32c-.13,4,.83,7.43,2.9,10.29,2.06,2.87,5.03,4.3,8.89,4.3v6.79h-31.57Z" style="fill:#fff; stroke:#d9d9d9; stroke-miterlimit:10; stroke-width:3px;"/><path d="m1484.46,195.94l-4-4.2c4-3.47,7.06-6.69,9.19-9.69,2.13-3,3.53-5.83,4.2-8.49l-.4-.6h-3.4c-3.2-.4-5.6-1.53-7.19-3.4s-2.4-4.33-2.4-7.39c0-2.8.96-5.23,2.9-7.29,1.93-2.06,4.7-3.1,8.29-3.1,4,0,7.09,1.27,9.29,3.8,2.2,2.53,3.3,5.93,3.3,10.19,0,5.46-1.93,10.99-5.79,16.59-3.87,5.59-8.53,10.12-13.99,13.59Z" style="fill:#fff; stroke:#d9d9d9; stroke-miterlimit:10; stroke-width:3px;"/><path d="m1567.78,31.47h45.96v6.79c-2.53.4-4.37,1.1-5.5,2.1-1.13,1-1.7,2.3-1.7,3.9-.13,1.07.03,2.1.5,3.1.46,1,1.1,2.03,1.9,3.1l33.77,45.76h1.2l28.38-43.96c1.6-2.53,2.66-4.4,3.2-5.6.53-1.2.87-2.26,1-3.2-.13-1.46-.93-2.7-2.4-3.7-1.47-1-3.2-1.5-5.2-1.5v-6.79h34.17v6.79c-4.26,0-8.23,1.2-11.89,3.6-3.67,2.4-7.63,6.93-11.89,13.59l-33.17,51.96v40.97c-.13,5.2.8,9.09,2.8,11.69,2,2.6,5,4.1,8.99,4.5v6.79h-40.77v-6.79c4.26-.4,7.26-1.93,8.99-4.6,1.73-2.66,2.66-6.53,2.8-11.59v-41.96l-37.77-51.56c-3.87-5.06-7.76-8.99-11.69-11.79-3.93-2.8-7.83-4.4-11.69-4.8v-6.79Z" style="fill:#fff; stroke:#d9d9d9; stroke-miterlimit:10; stroke-width:3px;"/><path d="m1778.81,29.88l53.96,119.9c2.26,5.2,4.56,8.93,6.89,11.19,2.33,2.27,5.03,3.47,8.09,3.6v6.79h-39.17v-6.79c2.66-.4,4.53-1.1,5.6-2.1,1.06-1,1.6-2.9,1.6-5.7-.13-.4-.37-1.17-.7-2.3-.33-1.13-.7-2.3-1.1-3.5l-7.99-17.99h-69.54l-7.79,16.99c-.8,1.73-1.43,3.2-1.9,4.4-.47,1.2-.63,2.07-.5,2.6-.13,2.13.47,3.83,1.8,5.1,1.33,1.27,3.33,2.1,6,2.5v6.79h-30.97v-6.79c2.93-.13,5.79-1.5,8.59-4.1,2.8-2.6,5.2-5.96,7.19-10.09l44.96-97.12c.53-1.33.96-2.36,1.3-3.1.33-.73.5-1.36.5-1.9,0-.93-.4-1.66-1.2-2.2-.8-.53-2-.8-3.6-.8v-6.79c2.26-.53,4.76-1.66,7.49-3.4,2.73-1.73,4.9-3.46,6.5-5.2h4Zm23.58,95.32l-29.58-65.75h-2.2l-30.57,65.75h62.35Z" style="fill:#fff; stroke:#d9d9d9; stroke-miterlimit:10; stroke-width:3px;"/><path d="m1894.31,31.47l44.76,113.71h.8l46.76-113.71h35.77v6.79c-4,.53-6.96,2.07-8.89,4.6-1.93,2.53-2.9,6.39-2.9,11.59v93.92c-.13,4.93.83,8.83,2.9,11.69,2.06,2.87,5.03,4.37,8.89,4.5v6.79h-40.77v-6.79c3.6-.13,6.43-1.56,8.49-4.29,2.06-2.73,3.16-6.68,3.3-11.87V39.27h-.6l-55.35,133.69h-6.59l-52.56-133.69h-.6v109.51c-.13,5.06.86,8.93,3,11.59,2.13,2.67,5.13,4.07,8.99,4.2v6.79h-31.57v-6.79c4.13-.4,7.09-1.9,8.89-4.5,1.8-2.6,2.76-6.36,2.9-11.29V50.26c-.13-3.46-1.23-6.26-3.3-8.39-2.07-2.13-4.9-3.33-8.49-3.6v-6.79h36.17Z" style="fill:#fff; stroke:#d9d9d9; stroke-miterlimit:10; stroke-width:3px;"/><path d="m2108.54,29.88l53.96,119.9c2.26,5.2,4.56,8.93,6.89,11.19,2.33,2.27,5.03,3.47,8.09,3.6v6.79h-39.17v-6.79c2.66-.4,4.53-1.1,5.6-2.1,1.06-1,1.6-2.9,1.6-5.7-.13-.4-.37-1.17-.7-2.3-.33-1.13-.7-2.3-1.1-3.5l-7.99-17.99h-69.54l-7.79,16.99c-.8,1.73-1.43,3.2-1.9,4.4-.47,1.2-.63,2.07-.5,2.6-.13,2.13.47,3.83,1.8,5.1,1.33,1.27,3.33,2.1,6,2.5v6.79h-30.97v-6.79c2.93-.13,5.79-1.5,8.59-4.1,2.8-2.6,5.2-5.96,7.19-10.09l44.96-97.12c.53-1.33.96-2.36,1.3-3.1.33-.73.5-1.36.5-1.9,0-.93-.4-1.66-1.2-2.2-.8-.53-2-.8-3.6-.8v-6.79c2.26-.53,4.76-1.66,7.49-3.4,2.73-1.73,4.9-3.46,6.5-5.2h4Zm23.58,95.32l-29.58-65.75h-2.2l-30.57,65.75h62.35Z" style="fill:#fff; stroke:#d9d9d9; stroke-miterlimit:10; stroke-width:3px;"/><path d="m2187.87,171.36v-6.79c3.46.53,6.33-.63,8.59-3.5,2.26-2.86,3.4-6.56,3.4-11.09V55.05c-.13-5.2-1.27-9.26-3.4-12.19-2.13-2.93-5-4.46-8.59-4.6v-6.79h28.36l84.95,107.46.6-.21V54.06c-.13-5.2-1.13-8.99-3-11.39-1.87-2.4-4.8-3.86-8.79-4.4v-6.79h31.38v6.79c-4.4.93-7.46,2.5-9.19,4.7-1.73,2.2-2.6,5.9-2.6,11.09v117.3h-6l-95.12-120.7h-.8v99.32c-.13,4,.83,7.43,2.9,10.29,2.06,2.87,5.03,4.3,8.89,4.3v6.79h-31.57Z" style="fill:#fff; stroke:#d9d9d9; stroke-miterlimit:10; stroke-width:3px;"/><path d="m2407.49,29.88l53.96,119.9c2.26,5.2,4.56,8.93,6.89,11.19,2.33,2.27,5.03,3.47,8.09,3.6v6.79h-39.17v-6.79c2.66-.4,4.53-1.1,5.6-2.1,1.06-1,1.6-2.9,1.6-5.7-.13-.4-.37-1.17-.7-2.3-.33-1.13-.7-2.3-1.1-3.5l-7.99-17.99h-69.54l-7.79,16.99c-.8,1.73-1.43,3.2-1.9,4.4-.47,1.2-.63,2.07-.5,2.6-.13,2.13.47,3.83,1.8,5.1,1.33,1.27,3.33,2.1,6,2.5v6.79h-30.97v-6.79c2.93-.13,5.79-1.5,8.59-4.1,2.8-2.6,5.2-5.96,7.19-10.09l44.96-97.12c.53-1.33.96-2.36,1.3-3.1.33-.73.5-1.36.5-1.9,0-.93-.4-1.66-1.2-2.2-.8-.53-2-.8-3.6-.8v-6.79c2.26-.53,4.76-1.66,7.49-3.4,2.73-1.73,4.9-3.46,6.5-5.2h4Zm23.58,95.32l-29.58-65.75h-2.2l-30.57,65.75h62.35Z" style="fill:#fff; stroke:#d9d9d9; stroke-miterlimit:10; stroke-width:3px;"/><path d="m2570.55,68.04h-7.79c-3.6-9.46-8.33-16.89-14.19-22.28-5.86-5.4-12.59-8.09-20.18-8.09s-13.69,2.1-18.29,6.29c-4.6,4.2-6.89,9.63-6.89,16.29,0,6.13,2.16,11.26,6.49,15.39,4.33,4.13,11.62,7.66,21.88,10.59,7.59,2.27,12.32,3.73,14.19,4.4,1.86.67,3.86,1.47,6,2.4,8.26,3.87,14.72,8.89,19.38,15.09,4.66,6.2,6.99,13.62,6.99,22.28,0,11.59-4.17,21.58-12.49,29.97-8.33,8.39-18.15,12.59-29.48,12.59-3.07,0-6.56-.27-10.49-.8-3.93-.53-7.36-1.26-10.29-2.2-7.06-2-11.06-3.1-11.99-3.3-.93-.2-1.8-.3-2.6-.3-2.13.13-3.97.6-5.5,1.4-1.53.8-2.57,2-3.1,3.6h-6.59v-43.16h6.79c2.8,9.99,8.46,18.68,16.99,26.08,8.52,7.39,17.99,11.03,28.38,10.89,7.06,0,13.19-2.66,18.38-7.99,5.2-5.33,7.79-11.79,7.79-19.38-.13-6.26-2.07-11.66-5.8-16.19-3.73-4.53-9.06-8.26-15.99-11.19-3.2-1.2-7.46-2.53-12.79-4-5.33-1.46-9.13-2.66-11.39-3.6-8.93-3.2-15.92-7.89-20.98-14.09-5.06-6.19-7.53-13.82-7.39-22.88,0-10.39,3.83-18.98,11.49-25.78,7.66-6.79,17.35-10.19,29.08-10.19,4.26,0,8.32.57,12.19,1.7,3.86,1.13,7.99,2.97,12.39,5.5,1.46.93,2.63,1.57,3.5,1.9.86.33,1.7.43,2.5.3.67,0,1.3-.13,1.9-.4.6-.27,1.56-1.06,2.9-2.4h5v31.57Z" style="fill:#fff; stroke:#d9d9d9; stroke-miterlimit:10; stroke-width:3px;"/><path d="m2635.7,31.47v6.79c-4.27.4-7.33,1.93-9.19,4.6-1.87,2.67-2.73,6.53-2.6,11.59v41.77h80.53v-41.77c-.13-5.06-1.07-8.89-2.8-11.49-1.73-2.6-4.73-4.16-8.99-4.7v-6.79h40.97v6.79c-4,.4-7.03,1.9-9.09,4.5-2.07,2.6-3.03,6.49-2.9,11.69v93.92c0,5.07.96,8.96,2.9,11.69,1.93,2.73,4.96,4.23,9.09,4.5v6.79h-40.97v-6.79c4.26-.4,7.26-1.9,8.99-4.5,1.73-2.6,2.66-6.49,2.8-11.69v-44.36h-80.53v44.36c-.13,5.46.77,9.46,2.7,11.99,1.93,2.53,4.96,3.93,9.09,4.2v6.79h-40.77v-6.79c4-.27,6.96-1.67,8.89-4.2,1.93-2.53,2.9-6.53,2.9-11.99V54.45c-.13-5.33-1.13-9.26-3-11.79-1.87-2.53-4.8-4-8.79-4.4v-6.79h40.77Z" style="fill:#fff; stroke:#d9d9d9; stroke-miterlimit:10; stroke-width:3px;"/><path d="m2795.16,31.47v6.79c-4.13.4-7.16,2-9.09,4.8-1.93,2.8-2.83,6.59-2.7,11.39v93.92c-.13,5.07.73,8.93,2.6,11.59,1.86,2.67,4.93,4.2,9.19,4.6v6.79h-40.77v-6.79c4.13-.4,7.09-1.93,8.89-4.6,1.8-2.66,2.76-6.53,2.9-11.59V54.45c-.13-5.2-1.17-9.09-3.1-11.69-1.93-2.6-4.83-4.1-8.69-4.5v-6.79h40.77Z" style="fill:#fff; stroke:#d9d9d9; stroke-miterlimit:10; stroke-width:3px;"/></svg>