<?xml version="1.0" encoding="UTF-8"?><svg id="_レイヤー_1" xmlns="http://www.w3.org/2000/svg" viewBox="0 0 1918.6 224.62"><path d="m4.1,56.85v-26.98l45.36,1.6h39.97l45.36-1.6v26.98h-6.79c-.27-5.33-2.4-9.59-6.39-12.79-4-3.2-9.13-4.8-15.39-4.8h-28.18v109.11c0,5.46.9,9.43,2.7,11.89,1.8,2.47,4.83,3.9,9.09,4.3v6.79h-40.97v-6.79c4.13-.4,7.13-1.83,8.99-4.3,1.86-2.46,2.86-6.43,3-11.89V39.27h-28.38c-6.26,0-11.13,1.43-14.59,4.3-3.47,2.87-5.8,7.29-6.99,13.29h-6.79Z" style="fill:#fff; stroke:#fbc6d0; stroke-miterlimit:10; stroke-width:3px;"/><path d="m216.12,29.88c19.58,0,36.3,6.79,50.16,20.38,13.85,13.59,20.78,30.64,20.78,51.16s-6.93,37.74-20.78,51.26c-13.86,13.52-30.57,20.28-50.16,20.28s-36.47-6.76-50.26-20.28c-13.79-13.52-20.68-30.61-20.68-51.26s6.89-37.57,20.68-51.16,30.54-20.38,50.26-20.38Zm0,7.79c-14.52,0-26.65,5.7-36.37,17.09-9.73,11.39-14.59,26.95-14.59,46.66s4.86,35.47,14.59,46.86c9.72,11.39,21.85,17.02,36.37,16.89,14.39,0,26.48-5.66,36.27-16.99,9.79-11.32,14.69-26.91,14.69-46.76s-4.9-35.27-14.69-46.66-21.88-17.09-36.27-17.09Z" style="fill:#fff; stroke:#fbc6d0; stroke-miterlimit:10; stroke-width:3px;"/><path d="m305.25,31.47h52.76c15.59,0,27.11,1.73,34.57,5.2,7.46,3.47,12.92,8.53,16.39,15.19,1.06,2.4,1.93,4.86,2.6,7.39.67,2.53,1,5.06,1,7.59,0,8.93-2.5,16.62-7.49,23.08-5,6.46-12.09,10.83-21.28,13.09l28.78,47.56c3.46,5.86,6.46,9.63,8.99,11.29,2.53,1.67,5.4,2.57,8.59,2.7v6.79h-25.38l-39.57-65.35h-30.97v42.36c-.13,5.33.76,9.26,2.7,11.79,1.93,2.53,4.96,4,9.09,4.4v6.79h-40.77v-6.79c4-.4,6.96-1.8,8.89-4.2,1.93-2.4,2.9-6.39,2.9-11.99V54.45c0-5.33-.97-9.22-2.9-11.69-1.93-2.46-4.9-3.96-8.89-4.5v-6.79Zm28.98,66.75h20.58c12.26,0,21.61-2.43,28.08-7.29,6.46-4.86,9.69-12.42,9.69-22.68s-2.97-17.29-8.89-21.88c-5.93-4.6-15.56-6.96-28.88-7.09h-20.58v58.95Z" style="fill:#fff; stroke:#fbc6d0; stroke-miterlimit:10; stroke-width:3px;"/><path d="m443.13,31.47h78.73c6.53.13,11.16-.13,13.89-.8,2.73-.67,6.43-.93,11.09-.8v26.58h-6.79c-1.73-6.26-4.96-10.66-9.69-13.19-4.73-2.53-11.89-3.86-21.48-4h-36.57v57.35h24.98c5.73,0,9.69-.9,11.89-2.7,2.2-1.8,3.7-4.63,4.5-8.49h6.59v30.18h-6.59c-1.33-4.4-2.9-7.36-4.7-8.89-1.8-1.53-5.7-2.3-11.69-2.3h-24.98v59.15h40.97c12.79,0,22.21-1.8,28.28-5.4,6.06-3.6,9.42-9.19,10.09-16.79h6.79l-2.2,29.98h-113.11v-6.79c3.86-.4,6.83-1.86,8.89-4.4,2.06-2.53,3.1-6.46,3.1-11.79V54.45c0-5.6-.97-9.66-2.9-12.19-1.93-2.53-4.96-3.86-9.09-4v-6.79Z" style="fill:#fff; stroke:#fbc6d0; stroke-miterlimit:10; stroke-width:3px;"/><path d="m566.23,56.85v-26.98l45.36,1.6h39.97l45.36-1.6v26.98h-6.79c-.27-5.33-2.4-9.59-6.39-12.79-4-3.2-9.13-4.8-15.39-4.8h-28.18v109.11c0,5.46.9,9.43,2.7,11.89,1.8,2.47,4.83,3.9,9.09,4.3v6.79h-40.97v-6.79c4.13-.4,7.13-1.83,8.99-4.3,1.86-2.46,2.86-6.43,3-11.89V39.27h-28.38c-6.26,0-11.13,1.43-14.59,4.3-3.47,2.87-5.8,7.29-6.99,13.29h-6.79Z" style="fill:#fff; stroke:#fbc6d0; stroke-miterlimit:10; stroke-width:3px;"/><path d="m775.26,29.88l53.96,119.9c2.26,5.2,4.56,8.93,6.89,11.19,2.33,2.27,5.03,3.47,8.09,3.6v6.79h-39.17v-6.79c2.66-.4,4.53-1.1,5.6-2.1,1.06-1,1.6-2.9,1.6-5.7-.13-.4-.37-1.17-.7-2.3-.33-1.13-.7-2.3-1.1-3.5l-7.99-17.99h-69.54l-7.79,16.99c-.8,1.73-1.43,3.2-1.9,4.4-.47,1.2-.63,2.07-.5,2.6-.13,2.13.47,3.83,1.8,5.1,1.33,1.27,3.33,2.1,6,2.5v6.79h-30.97v-6.79c2.93-.13,5.8-1.5,8.59-4.1,2.8-2.6,5.2-5.96,7.19-10.09l44.96-97.12c.53-1.33.96-2.36,1.3-3.1.33-.73.5-1.36.5-1.9,0-.93-.4-1.66-1.2-2.2-.8-.53-2-.8-3.6-.8v-6.79c2.26-.53,4.76-1.66,7.49-3.4,2.73-1.73,4.9-3.46,6.49-5.2h4Zm23.58,95.32l-29.58-65.75h-2.2l-30.57,65.75h62.35Z" style="fill:#fff; stroke:#fbc6d0; stroke-miterlimit:10; stroke-width:3px;"/><path d="m846.8,56.85v-26.98l45.36,1.6h39.97l45.36-1.6v26.98h-6.79c-.27-5.33-2.4-9.59-6.4-12.79-4-3.2-9.13-4.8-15.39-4.8h-28.18v109.11c0,5.46.9,9.43,2.7,11.89,1.8,2.47,4.83,3.9,9.09,4.3v6.79h-40.97v-6.79c4.13-.4,7.13-1.83,8.99-4.3,1.86-2.46,2.86-6.43,3-11.89V39.27h-28.38c-6.26,0-11.13,1.43-14.59,4.3-3.47,2.87-5.8,7.29-6.99,13.29h-6.79Z" style="fill:#fff; stroke:#fbc6d0; stroke-miterlimit:10; stroke-width:3px;"/><path d="m990.48,31.47h78.74c6.53.13,11.16-.13,13.89-.8,2.73-.67,6.43-.93,11.09-.8v26.58h-6.79c-1.73-6.26-4.96-10.66-9.69-13.19-4.73-2.53-11.89-3.86-21.48-4h-36.57v57.35h24.98c5.73,0,9.69-.9,11.89-2.7,2.2-1.8,3.7-4.63,4.5-8.49h6.59v30.18h-6.59c-1.33-4.4-2.9-7.36-4.7-8.89-1.8-1.53-5.7-2.3-11.69-2.3h-24.98v59.15h40.97c12.79,0,22.21-1.8,28.28-5.4,6.06-3.6,9.42-9.19,10.09-16.79h6.79l-2.2,29.98h-113.11v-6.79c3.86-.4,6.83-1.86,8.89-4.4,2.06-2.53,3.1-6.46,3.1-11.79V54.45c0-5.6-.97-9.66-2.9-12.19-1.93-2.53-4.96-3.86-9.09-4v-6.79Z" style="fill:#fff; stroke:#fbc6d0; stroke-miterlimit:10; stroke-width:3px;"/><path d="m1170.93,171.36v-6.79c3.46.53,6.33-.63,8.59-3.5,2.26-2.86,3.4-6.56,3.4-11.09V55.05c-.13-5.2-1.27-9.26-3.4-12.19-2.13-2.93-5-4.46-8.59-4.6v-6.79h28.36l84.95,107.46.6-.21V54.06c-.13-5.2-1.13-8.99-3-11.39-1.87-2.4-4.8-3.86-8.79-4.4v-6.79h31.38v6.79c-4.4.93-7.46,2.5-9.19,4.7-1.73,2.2-2.6,5.9-2.6,11.09v117.3h-6l-95.12-120.7h-.8v99.32c-.13,4,.83,7.43,2.9,10.29,2.06,2.87,5.03,4.3,8.89,4.3v6.79h-31.57Z" style="fill:#fff; stroke:#fbc6d0; stroke-miterlimit:10; stroke-width:3px;"/><path d="m1393.54,29.88c19.58,0,36.3,6.79,50.16,20.38,13.85,13.59,20.78,30.64,20.78,51.16s-6.93,37.74-20.78,51.26c-13.86,13.52-30.57,20.28-50.16,20.28s-36.47-6.76-50.26-20.28c-13.79-13.52-20.68-30.61-20.68-51.26s6.89-37.57,20.68-51.16,30.54-20.38,50.26-20.38Zm0,7.79c-14.52,0-26.65,5.7-36.37,17.09-9.73,11.39-14.59,26.95-14.59,46.66s4.86,35.47,14.59,46.86c9.72,11.39,21.85,17.02,36.37,16.89,14.39,0,26.48-5.66,36.27-16.99,9.79-11.32,14.69-26.91,14.69-46.76s-4.9-35.27-14.69-46.66-21.88-17.09-36.27-17.09Z" style="fill:#fff; stroke:#fbc6d0; stroke-miterlimit:10; stroke-width:3px;"/><path d="m1482.67,31.47h40.37v6.79c-4.13.53-7.13,2.03-8.99,4.5-1.87,2.47-2.73,6.36-2.6,11.69v54.75c0,12.92,1.73,23.15,5.2,30.68,3.46,7.53,9.39,13.29,17.79,17.29,3.06,1.6,6.36,2.73,9.89,3.4,3.53.67,7.69,1,12.49,1,4.53.13,8.89-.37,13.09-1.5,4.2-1.13,8.29-2.9,12.29-5.29,7.19-4.26,12.32-10.02,15.39-17.29,3.06-7.26,4.6-18.22,4.6-32.87v-51.76c0-4.66-.93-8.16-2.8-10.49-1.87-2.33-4.8-3.7-8.79-4.1v-6.79h30.97v6.79c-4.13.4-7.09,1.8-8.89,4.2-1.8,2.4-2.7,5.86-2.7,10.39v61.15c-.13,18.78-4.93,33.31-14.39,43.56-9.46,10.26-23.52,15.39-42.17,15.39-21.32,0-36.5-5.4-45.56-16.19-9.06-10.79-13.59-26.91-13.59-48.36v-53.96c0-5.2-.87-9.09-2.6-11.69-1.73-2.6-4.73-4.1-8.99-4.5v-6.79Z" style="fill:#fff; stroke:#fbc6d0; stroke-miterlimit:10; stroke-width:3px;"/><path d="m1642.33,31.47h78.74c6.53.13,11.16-.13,13.89-.8,2.73-.67,6.43-.93,11.09-.8v26.58h-6.79c-1.73-6.26-4.96-10.66-9.69-13.19-4.73-2.53-11.89-3.86-21.48-4h-36.57v57.35h24.98c5.73,0,9.69-.9,11.89-2.7,2.2-1.8,3.7-4.63,4.5-8.49h6.59v30.18h-6.59c-1.33-4.4-2.9-7.36-4.7-8.89-1.8-1.53-5.7-2.3-11.69-2.3h-24.98v59.15h40.97c12.79,0,22.21-1.8,28.28-5.4,6.06-3.6,9.42-9.19,10.09-16.79h6.79l-2.2,29.98h-113.11v-6.79c3.86-.4,6.83-1.86,8.89-4.4,2.06-2.53,3.1-6.46,3.1-11.79V54.45c0-5.6-.97-9.66-2.9-12.19-1.93-2.53-4.96-3.86-9.09-4v-6.79Z" style="fill:#fff; stroke:#fbc6d0; stroke-miterlimit:10; stroke-width:3px;"/><path d="m1773.22,171.36v-6.79c3.46.53,6.33-.63,8.59-3.5,2.26-2.86,3.4-6.56,3.4-11.09V55.05c-.13-5.2-1.27-9.26-3.4-12.19-2.13-2.93-5-4.46-8.59-4.6v-6.79h28.36l84.95,107.46.6-.21V54.06c-.13-5.2-1.13-8.99-3-11.39-1.87-2.4-4.8-3.86-8.79-4.4v-6.79h31.38v6.79c-4.4.93-7.46,2.5-9.19,4.7-1.73,2.2-2.6,5.9-2.6,11.09v117.3h-6l-95.12-120.7h-.8v99.32c-.13,4,.83,7.43,2.9,10.29,2.06,2.87,5.03,4.3,8.89,4.3v6.79h-31.57Z" style="fill:#fff; stroke:#fbc6d0; stroke-miterlimit:10; stroke-width:3px;"/></svg>